<svg width="737" height="934" viewBox="0 0 737 934" fill="none" xmlns="http://www.w3.org/2000/svg">
<path d="M0 124.825C0 124.825 8.36893 107.381 17.5085 99.6413C25.2418 93.0927 30.831 90.659 40.4885 87.5967C52.7522 83.708 61.6164 90.2103 73.317 84.8593C81.4815 81.1255 86.008 77.8267 91.3727 70.6248C98.0763 61.6255 97.4297 54.1458 100.127 43.2509C101.961 35.8434 100.755 31.0153 103.957 24.0891C108.085 15.1608 112.418 10.417 120.918 5.47479C126.936 1.97598 137.88 0 137.88 0H691.04C691.04 0 714.105 6.75263 723.869 17.5193C731.446 25.8751 737 43.2509 737 43.2509V826.147C737 826.147 730 851 714.02 846.403C703.752 843.45 696.648 842.6 686.663 846.403C678.273 849.599 674.02 853.472 668.607 860.638C663.937 866.821 660.4 874 660.4 878.705C660.4 890.838 659.146 898.513 652.74 908.816C648.895 915 652.74 927 632.496 927.43C612.252 927.86 50.8842 934 50.8842 934C50.8842 934 31.2509 928.687 21.3385 920.86C10.0288 911.931 0 890.749 0 890.749V124.825Z" fill="white"/>
</svg>
